<?xml version="1.0" encoding="utf-8"?>
<!-- Generator: Adobe Illustrator 24.0.3, SVG Export Plug-In . SVG Version: 6.00 Build 0)  -->
<svg version="1.1" id="Calque_1" xmlns="http://www.w3.org/2000/svg" xmlns:xlink="http://www.w3.org/1999/xlink" x="0px" y="0px"
	 viewBox="0 0 612 109" style="enable-background:new 0 0 612 109;" xml:space="preserve">
<style type="text/css">
	.st0{fill:#C82C46;}
</style>
<g>
	<g>
		<path class="st0" d="M145.8,45.9c0-7.5-1.8-12.8-5.5-16c-3.7-3.2-9.8-4.8-18.3-4.8c-8.5,0-16.4,2-23.8,5.9
			c-0.1,1.3-0.1,2.6-0.1,3.8c0,4.4,0.7,7.9,2,10.7h11.7c0.8-1.8,1.3-4.4,1.4-7.7c1.6-0.5,3.6-0.7,6.1-0.7c6.6,0,9.9,3.1,9.9,9.3v5.7
			h-13c-7,0-12.2,1.5-15.8,4.6c-3.5,3.1-5.3,7.2-5.3,12.5c0,5.3,1.9,9.5,5.7,12.6c3.8,3.1,8.3,4.6,13.6,4.6c9,0,15.1-2.5,18.6-7.5
			c0.6,2.9,1.2,5.4,2,7.5c7.5,0,13.3-1,17.4-2.9V73.3c-1.6-0.8-3.8-1.5-6.5-2V45.9z M129.2,70.8c-2.4,2.4-5.6,3.6-9.6,3.6
			c-2.4,0-4.2-0.6-5.4-1.9c-1.2-1.3-1.8-2.9-1.8-4.9c0-4.4,2.9-6.5,8.6-6.5h8.3V70.8z"/>
		<path class="st0" d="M194,25.1c-6,0-11.7,1.9-17,5.6v-5.8c-2.3-0.2-5.2-0.2-8.7-0.2c-3.5,0-7.4,0.5-11.8,1.4l-1.2,9.2
			c1.6,1.7,3.8,3.1,6.5,4v56.9c-3.3,1.3-5.5,2.6-6.5,4l1.2,9.2h29.9l1.2-9.2c-1.3-1.7-4.4-3.1-9-4.4V85.5c2.9,0.6,6,1,9.3,1
			c7.5,0,14-2.4,19.5-7.1c2.9-2.4,5.1-5.7,6.8-10c1.7-4.3,2.5-9.2,2.5-14.9c0-10.5-1.8-18.1-5.4-22.6
			C207.7,27.4,201.9,25.1,194,25.1z M196,69c-2.3,3.5-5.4,5.3-9.4,5.3c-2.9,0-5.6-0.3-8.1-1V41.7c3-2.4,7.1-3.6,12.1-3.6
			c3.3,0,5.6,1.2,6.9,3.4c1.3,2.3,1.9,6.6,1.9,12.8C199.5,60.6,198.3,65.5,196,69z"/>
		<path class="st0" d="M260.1,25.1c-6,0-11.7,1.9-17,5.6v-5.8c-2.3-0.2-5.2-0.2-8.7-0.2c-3.5,0-7.4,0.5-11.8,1.4l-1.2,9.2
			c1.6,1.7,3.8,3.1,6.5,4v56.9c-3.3,1.3-5.5,2.6-6.5,4l1.2,9.2h29.9l1.2-9.2c-1.3-1.7-4.4-3.1-9-4.4V85.5c2.9,0.6,6,1,9.3,1
			c7.5,0,14-2.4,19.5-7.1c2.9-2.4,5.1-5.7,6.8-10c1.7-4.3,2.5-9.2,2.5-14.9c0-10.5-1.8-18.1-5.4-22.6
			C273.8,27.4,268.1,25.1,260.1,25.1z M262.2,69c-2.3,3.5-5.4,5.3-9.4,5.3c-2.9,0-5.6-0.3-8.1-1V41.7c3-2.4,7.1-3.6,12.1-3.6
			c3.3,0,5.6,1.2,6.9,3.4c1.3,2.3,1.9,6.6,1.9,12.8C265.6,60.6,264.5,65.5,262.2,69z"/>
		<path class="st0" d="M316.8,73.4c-2.7,0-4.4-0.6-5.1-1.7c-0.7-1.1-1.1-3-1.1-5.5V36h17V26h-17v-15h-8.7c-3.6,2.3-5.8,6.7-6.8,13.2
			c-4,1.5-6.6,3-7.9,4.5l1.3,7.3h5.4v33.4c0,5.2,1.1,9.2,3.4,12c2.3,2.7,6.6,4.1,13,4.1c6.4,0,12.6-1.5,18.7-4.6l-3.6-9.3
			C322.4,72.8,319.5,73.4,316.8,73.4z"/>
		<path class="st0" d="M399.6,26l-1.2,9.2c1.2,1.6,3.6,3,7.1,4.3l-0.7,3.3c-1,4.6-3,13.6-5.9,27h-1.7l-3-13.2l-8-30.3h-13.3
			l-8.1,30.6c-1.2,4.4-2.2,8.8-3.1,13h-1.7l-6.9-30.3c3.4-1.2,5.8-2.6,7.3-4.3l-1.2-9.2h-27.8l-1.2,9.2c1.3,1.7,3.6,3.1,7,4.3
			l15,46.7h16.9l5.6-18.9c1.6-5.2,2.8-10.8,3.6-17h1.7l0.4,2.9c0.7,5.7,1.7,10.5,3,14.3l6.1,18.8h15.5l14.9-46.5
			c3.6-1.2,6.1-2.7,7.5-4.5L426,26H399.6z"/>
		<path class="st0" d="M481.4,51c0-9.8-2-16.5-5.9-20.3c-3.9-3.8-9.6-5.7-17-5.7s-13.8,2.2-19.4,6.7c-2.9,2.3-5.1,5.6-6.8,9.8
			c-1.7,4.2-2.5,9.3-2.5,15.2c0,9.7,2.4,17.1,7.2,22.1c4.8,5.1,12,7.6,21.5,7.6c4.7,0,8.9-0.7,12.5-2.1c3.7-1.4,6-2.5,6.9-3.3
			c0.9-0.8,1.6-1.5,2.1-2.1l-3.6-9.5l-1.7,1c-1.1,0.6-2.9,1.3-5.4,1.9c-2.5,0.6-5,1-7.7,1c-4.9,0-8.5-1-10.8-3.1
			c-2.3-2.1-3.6-5.6-3.9-10.6h25.8C478.6,59.6,481.4,56.7,481.4,51z M466,49l-18.8,0.7c0.6-4.5,1.7-7.7,3.3-9.6
			c1.7-1.9,4.1-2.9,7.2-2.9c3.1,0,5.3,0.9,6.6,2.7c1.3,1.8,1.9,3.5,1.9,5.1C466.3,46.5,466.2,47.9,466,49z"/>
		<path class="st0" d="M537.5,45.9c0-7.5-1.8-12.8-5.5-16c-3.7-3.2-9.8-4.8-18.3-4.8c-8.5,0-16.4,2-23.8,5.9
			c-0.1,1.3-0.1,2.6-0.1,3.8c0,4.4,0.7,7.9,2,10.7h11.7c0.8-1.8,1.3-4.4,1.4-7.7c1.6-0.5,3.6-0.7,6.1-0.7c6.6,0,9.9,3.1,9.9,9.3v5.7
			h-13c-7,0-12.2,1.5-15.8,4.6c-3.5,3.1-5.3,7.2-5.3,12.5c0,5.3,1.9,9.5,5.7,12.6c3.8,3.1,8.3,4.6,13.6,4.6c9,0,15.1-2.5,18.6-7.5
			c0.6,2.9,1.2,5.4,2,7.5c7.5,0,13.3-1,17.4-2.9V73.3c-1.6-0.8-3.8-1.5-6.5-2V45.9z M520.9,70.8c-2.4,2.4-5.6,3.6-9.6,3.6
			c-2.4,0-4.2-0.6-5.4-1.9c-1.2-1.3-1.8-2.9-1.8-4.9c0-4.4,2.9-6.5,8.6-6.5h8.3V70.8z"/>
		<path class="st0" d="M602.1,71.2l-13.4-17.7l11.4-13.1c4.8-1.3,8.1-3,9.9-5.2l-1.2-9.2h-26.2l-1.2,9.2c0.6,0.9,1.5,1.7,2.9,2.5
			l-13.1,17l21.1,30.8h19l1.2-9.2C610.5,74.1,607,72.4,602.1,71.2z"/>
		<path class="st0" d="M570.1,72.3V-0.1c-2.6-0.2-5.8-0.4-9.6-0.4c-3.8,0-7.9,0.5-12.4,1.5l-1.2,9.2c1.6,1.7,3.8,3.1,6.5,4v58
			c-3.3,1.2-5.4,2.5-6.5,4l1.2,9.2h27.4l1.2-9.2C575.4,74.9,573.2,73.5,570.1,72.3z"/>
	</g>
	<g>
		<path class="st0" d="M44.9,75.1c-0.5,0-1-0.2-1.4-0.6L25.7,53.7L0.3,82.6v0.6c0,4.2,3.4,7.7,7.7,7.7h57.7c4.2,0,7.7-3.4,7.7-7.7
			V37.6l-27,36.7C45.9,74.8,45.4,75.1,44.9,75.1z"/>
		<path class="st0" d="M65.6,17.9H7.9c-4.2,0-7.7,3.4-7.7,7.7v48.2L24.5,45c0.3-0.4,0.7-0.6,1.2-0.6c0,0,0,0,0,0
			c0.5,0,0.9,0.2,1.2,0.5l17.8,20.8l28.6-38.6v-1.6C73.3,21.3,69.8,17.9,65.6,17.9z"/>
	</g>
</g>
</svg>
